<svg width="108" height="163" viewBox="0 0 108 163" fill="none" xmlns="http://www.w3.org/2000/svg">
<g id="Group 35">
<rect id="Rectangle 8" opacity="0.2" y="55" width="108" height="108" rx="54" fill="#0096F2"/>
<g id="Group 54">
<rect id="Rectangle 54" x="29" y="84" width="50" height="50" rx="25" fill="#0096F2"/>
<path id="Vector" opacity="0.7" d="M54 0.472656C47.3833 0.472656 42 5.38834 42 11.4292C42 17.4795 47.3735 22.3857 54 22.3857C60.6167 22.3857 66 17.4705 66 11.4292C66 5.37833 60.6271 0.472656 54 0.472656ZM54 16.9601C52.5617 16.9601 51.1823 16.4384 50.1653 15.5098C49.1483 14.5813 48.5769 13.3218 48.5769 12.0086C48.5769 10.6954 49.1483 9.43595 50.1653 8.50736C51.1823 7.57877 52.5617 7.0571 54 7.0571H54.2429L53.4288 6.31437C53.2774 6.17607 53.1923 5.98848 53.1923 5.79289C53.1923 5.59729 53.2774 5.40971 53.4288 5.2714C53.5803 5.13309 53.7858 5.05539 54 5.05539C54.2142 5.05539 54.4197 5.13309 54.5712 5.2714L56.8788 7.37842C56.9539 7.4469 57.0134 7.5282 57.054 7.61768C57.0945 7.70715 57.1154 7.80306 57.1154 7.89991C57.1154 7.99676 57.0945 8.09266 57.054 8.18214C57.0134 8.27162 56.9539 8.35291 56.8788 8.4214L54.5712 10.5284C54.4197 10.6667 54.2142 10.7444 54 10.7444C53.7858 10.7444 53.5803 10.6667 53.4288 10.5284C53.2774 10.3901 53.1923 10.2025 53.1923 10.0069C53.1923 9.81133 53.2774 9.62375 53.4288 9.48544L54.4673 8.53728C54.33 8.53201 54.1731 8.53201 54 8.53201C53.2469 8.53201 52.5107 8.73591 51.8846 9.11792C51.2584 9.49994 50.7703 10.0429 50.4822 10.6782C50.194 11.3134 50.1186 12.0125 50.2655 12.6868C50.4124 13.3612 50.775 13.9807 51.3076 14.4669C51.8401 14.9531 52.5185 15.2842 53.2572 15.4184C53.9958 15.5525 54.7614 15.4837 55.4571 15.2205C56.1529 14.9574 56.7476 14.5118 57.166 13.9401C57.5844 13.3684 57.8077 12.6962 57.8077 12.0086C57.8077 11.813 57.8928 11.6254 58.0443 11.4871C58.1957 11.3488 58.4012 11.2711 58.6154 11.2711C58.8296 11.2711 59.035 11.3488 59.1865 11.4871C59.338 11.6254 59.4231 11.813 59.4231 12.0086C59.4214 13.3213 58.8495 14.5799 57.8328 15.5081C56.8162 16.4364 55.4378 16.9586 54 16.9601Z" fill="white"/>
</g>
</g>
</svg>
