<svg width="108" height="212" viewBox="0 0 108 212" fill="none" xmlns="http://www.w3.org/2000/svg">
<g id="Group 34">
<rect id="Rectangle 9" opacity="0.2" y="104" width="108" height="108" rx="54" fill="#FF9429"/>
<g id="Group 55">
<g id="Group 57">
<rect id="Rectangle 53" x="29" y="133" width="50" height="50" rx="25" fill="#FF9429"/>
<path id="Vector" fill-rule="evenodd" clip-rule="evenodd" d="M58.5 0.513672C60.459 0.513672 62.127 1.65726 62.745 3.25281H49.5C47.5109 3.25281 45.6032 3.97427 44.1967 5.25849C42.7902 6.54271 42 8.28449 42 10.1006V16.7157C41.1224 16.4321 40.3626 15.9072 39.8254 15.213C39.2881 14.5189 38.9997 13.6898 39 12.8398V4.62238C39 3.53268 39.4741 2.48761 40.318 1.71708C41.1619 0.946552 42.3065 0.513672 43.5 0.513672H58.5ZM64.5 5.99194H49.5C48.3065 5.99194 47.1619 6.42482 46.318 7.19535C45.4741 7.96589 45 9.01095 45 10.1006V18.3181C45 19.4078 45.4741 20.4528 46.318 21.2233C47.1619 21.9939 48.3065 22.4268 49.5 22.4268H64.5C65.6935 22.4268 66.8381 21.9939 67.682 21.2233C68.5259 20.4528 69 19.4078 69 18.3181V10.1006C69 9.01095 68.5259 7.96589 67.682 7.19535C66.8381 6.42482 65.6935 5.99194 64.5 5.99194ZM60 14.2094C60 14.9358 59.6839 15.6325 59.1213 16.1462C58.5587 16.6599 57.7956 16.9485 57 16.9485C56.2044 16.9485 55.4413 16.6599 54.8787 16.1462C54.3161 15.6325 54 14.9358 54 14.2094C54 13.4829 54.3161 12.7862 54.8787 12.2725C55.4413 11.7588 56.2044 11.4702 57 11.4702C57.7956 11.4702 58.5587 11.7588 59.1213 12.2725C59.6839 12.7862 60 13.4829 60 14.2094Z" fill="white"/>
</g>
</g>
</g>
</svg>
