<svg width="108" height="183" viewBox="0 0 108 183" fill="none" xmlns="http://www.w3.org/2000/svg">
<g id="Group 33">
<rect id="Rectangle 10" opacity="0.2" y="75" width="108" height="108" rx="54" fill="#E11D2E"/>
<g id="Group 56">
<rect id="Rectangle 52" x="29" y="104" width="50" height="50" rx="25" fill="#E11D2E"/>
<g id="Group" opacity="0.7">
<path id="Vector" d="M64.334 0.429688H57.6673C56.9309 0.429688 56.334 0.974731 56.334 1.64708V7.73403C56.334 8.40637 56.9309 8.95142 57.6673 8.95142H64.334C65.0703 8.95142 65.6673 8.40637 65.6673 7.73403V1.64708C65.6673 0.974731 65.0703 0.429688 64.334 0.429688Z" fill="white"/>
<path id="Vector_2" d="M50 13.5156H43.3333C42.597 13.5156 42 14.0607 42 14.733V20.8201C42 21.4924 42.597 22.0375 43.3333 22.0375H50C50.7364 22.0375 51.3333 21.4924 51.3333 20.8201V14.733C51.3333 14.0607 50.7364 13.5156 50 13.5156Z" fill="white"/>
<path id="Vector_3" d="M46.6667 8.95142C47.2795 8.95142 47.8863 8.84121 48.4525 8.62708C49.0187 8.41295 49.5331 8.0991 49.9665 7.70344C50.3998 7.30778 50.7436 6.83807 50.9781 6.32111C51.2126 5.80416 51.3333 5.2501 51.3333 4.69055C51.3333 4.13101 51.2126 3.57694 50.9781 3.05999C50.7436 2.54304 50.3998 2.07332 49.9665 1.67767C49.5331 1.28201 49.0187 0.968155 48.4525 0.754026C47.8863 0.539898 47.2795 0.429687 46.6667 0.429688C45.429 0.429688 44.242 0.878599 43.3668 1.67767C42.4917 2.47673 42 3.5605 42 4.69055C42 5.8206 42.4917 6.90437 43.3668 7.70344C44.242 8.5025 45.429 8.95142 46.6667 8.95142Z" fill="white"/>
<path id="Vector_4" d="M65.6673 20.8201L61.0006 13.5156L56.334 20.8201C56.334 21.4924 56.9309 22.0375 57.6673 22.0375H64.334C65.0703 22.0375 65.6673 21.4924 65.6673 20.8201Z" fill="white"/>
</g>
</g>
</g>
</svg>
